<svg width="773" height="549" viewBox="0 0 773 549" fill="none" xmlns="http://www.w3.org/2000/svg">
<g clip-path="url(#clip0_133_2468)">
<path d="M772.36 38.1584C426.074 168.188 -58.7259 445.239 772.36 513.212V38.1584Z" fill="white"/>
<path d="M868.333 71.5257C522.047 201.555 37.2467 412.56 868.333 480.533V71.5257Z" fill="#161616"/>
<path d="M959.835 96.9811C613.549 210.716 128.748 395.279 959.835 454.733V96.9811Z" fill="white"/>
<path d="M886.909 154.772C665.224 237.448 354.864 371.611 886.909 414.83V154.772Z" fill="#161616"/>
<circle cx="1.37597" cy="1.37597" r="1.37597" transform="matrix(-1 0 0 1 445.223 365.983)" fill="white"/>
<circle cx="1.37597" cy="1.37597" r="1.37597" transform="matrix(-1 0 0 1 747.248 331.584)" fill="white"/>
<circle cx="1.37597" cy="1.37597" r="1.37597" transform="matrix(-1 0 0 1 315.193 57.0779)" fill="white"/>
<circle cx="1.37597" cy="1.37597" r="1.37597" transform="matrix(-1 0 0 1 143.886 420.334)" fill="white"/>
<circle cx="1.37597" cy="1.37597" r="1.37597" transform="matrix(-1 0 0 1 572.501 498.077)" fill="white"/>
<circle cx="1.37597" cy="1.37597" r="1.37597" transform="matrix(-1 0 0 1 454.854 121.749)" fill="white"/>
<circle cx="1.37597" cy="1.37597" r="1.37597" transform="matrix(-1 0 0 1 177.532 236.971)" fill="white"/>
<circle cx="1.37597" cy="1.37597" r="1.37597" transform="matrix(-1 0 0 1 395.688 197.427)" fill="white"/>
<circle cx="402.911" cy="393.159" r="1.03198" fill="#161616"/>
<circle cx="739.337" cy="62.2378" r="1.03198" fill="#161616"/>
<circle cx="542.573" cy="441.318" r="1.03198" fill="#161616"/>
<circle cx="581.098" cy="83.5654" r="12.0397" fill="white"/>
<circle cx="473.589" cy="261.569" r="17.5436" transform="rotate(18.3001 473.589 261.569)" fill="white"/>
<path d="M479.098 244.912C469.899 241.87 460.065 246.589 456.933 256.06C455.358 260.822 455.407 264.292 457.398 268.895C458.154 266.609 484.871 248.271 484.871 248.271C484.871 248.271 483.997 246.532 479.098 244.912Z" fill="#161616"/>
<circle cx="404.287" cy="435.126" r="2.40795" fill="#161616"/>
<circle cx="538.445" cy="333.304" r="1.71996" fill="#161616"/>
<circle cx="619.627" cy="154.428" r="2.40795" fill="#161616"/>
<rect x="553.235" y="226.498" width="1.04072" height="1.04072" rx="0.142126" transform="rotate(-24.4476 553.235 226.498)" fill="white"/>
<rect x="347.528" y="434.27" width="2.08768" height="2.08768" rx="0.285103" transform="rotate(-24.4476 347.528 434.27)" fill="white"/>
<rect x="716.978" y="547.1" width="2.08768" height="2.08768" rx="0.285103" transform="rotate(-24.4476 716.978 547.1)" fill="white"/>
<rect x="90.2217" y="97.8452" width="2.08768" height="2.08768" rx="0.285103" transform="rotate(-24.4476 90.2217 97.8452)" fill="white"/>
<rect x="423.046" y="257.648" width="1.81119" height="1.81119" rx="0.258414" transform="rotate(35.3063 423.046 257.648)" fill="#161616"/>
<rect x="474.475" y="417.534" width="2.15578" height="2.15578" rx="0.331922" transform="rotate(30.4542 474.475 417.534)" fill="#161616"/>
<rect x="697.713" y="493.465" width="2.15578" height="2.15578" rx="0.331922" transform="rotate(-24.4476 697.713 493.465)" fill="#161616"/>
<rect x="718.353" y="195.567" width="2.15578" height="2.15578" rx="0.331922" transform="rotate(-24.4476 718.353 195.567)" fill="#161616"/>
<path d="M738.7 30.6253C738.903 30.5335 739.13 30.6963 739.107 30.9183L738.953 32.4591C738.931 32.6811 738.677 32.7957 738.495 32.6655L737.238 31.7615C737.057 31.6312 737.085 31.3538 737.288 31.262L738.7 30.6253Z" fill="white"/>
<path d="M701.548 245.965C701.752 245.873 701.978 246.036 701.956 246.258L701.802 247.798C701.779 248.02 701.525 248.135 701.344 248.005L700.087 247.101C699.906 246.971 699.934 246.693 700.137 246.601L701.548 245.965Z" fill="white"/>
<path d="M455.528 318.258C455.598 318.388 455.576 318.548 455.474 318.655L454.373 319.801C454.271 319.907 454.112 319.936 453.979 319.872L452.549 319.179C452.416 319.115 452.34 318.973 452.36 318.826L452.576 317.252C452.597 317.106 452.708 316.989 452.854 316.963L454.418 316.683C454.563 316.657 454.709 316.727 454.778 316.857L455.528 318.258Z" fill="white"/>
<path d="M667.264 60.8661C667.412 60.8654 667.543 60.9597 667.589 61.0998L668.088 62.6088C668.134 62.7489 668.085 62.9028 667.966 62.9901L666.685 63.9305C666.566 64.0178 666.404 64.0186 666.284 63.9325L664.994 63.0047C664.874 62.9186 664.824 62.7651 664.869 62.6246L665.352 61.1108C665.397 60.9703 665.527 60.8746 665.675 60.8739L667.264 60.8661Z" fill="white"/>
<path d="M618.221 311.318C618.269 311.374 618.276 311.453 618.238 311.516L617.829 312.19C617.791 312.252 617.717 312.283 617.646 312.267L616.878 312.086C616.807 312.069 616.755 312.009 616.749 311.936L616.683 311.15C616.677 311.077 616.719 311.009 616.786 310.98L617.513 310.675C617.581 310.647 617.659 310.665 617.707 310.721L618.221 311.318Z" fill="white"/>
<path d="M539.988 136.544C540.135 136.544 540.267 136.638 540.313 136.778L540.811 138.287C540.858 138.427 540.808 138.581 540.689 138.668L539.408 139.609C539.289 139.696 539.128 139.697 539.008 139.611L537.718 138.683C537.598 138.597 537.547 138.443 537.592 138.303L538.076 136.789C538.121 136.649 538.251 136.553 538.399 136.552L539.988 136.544Z" fill="white"/>
<path d="M651.035 367.006C651.092 367.095 651.086 367.212 651.018 367.294L650.292 368.184C650.224 368.266 650.111 368.296 650.012 368.257L648.942 367.841C648.842 367.802 648.779 367.704 648.785 367.598L648.85 366.451C648.856 366.345 648.93 366.254 649.033 366.227L650.144 365.935C650.247 365.908 650.356 365.95 650.414 366.04L651.035 367.006Z" fill="white"/>
<path d="M662.448 436.506C662.595 436.505 662.726 436.6 662.773 436.74L663.271 438.249C663.318 438.389 663.268 438.543 663.149 438.63L661.868 439.57C661.749 439.658 661.588 439.659 661.468 439.572L660.178 438.645C660.058 438.559 660.007 438.405 660.052 438.265L660.536 436.751C660.581 436.61 660.711 436.515 660.859 436.514L662.448 436.506Z" fill="white"/>
<path d="M500.771 506.681C500.919 506.68 501.05 506.774 501.096 506.914L501.594 508.423C501.641 508.563 501.592 508.717 501.473 508.805L500.192 509.745C500.073 509.832 499.911 509.833 499.791 509.747L498.501 508.819C498.381 508.733 498.331 508.58 498.375 508.439L498.859 506.925C498.904 506.785 499.034 506.689 499.182 506.688L500.771 506.681Z" fill="white"/>
<path d="M337.345 313.606C337.46 313.606 337.562 313.679 337.598 313.789L337.987 314.965C338.023 315.075 337.984 315.195 337.892 315.263L336.893 315.996C336.8 316.064 336.674 316.065 336.58 315.998L335.574 315.274C335.481 315.207 335.441 315.087 335.476 314.978L335.854 313.797C335.889 313.688 335.99 313.613 336.105 313.612L337.345 313.606Z" fill="#161616"/>
<path d="M352.988 369.774C353.131 369.71 353.291 369.824 353.275 369.981L353.081 371.916C353.066 372.072 352.887 372.153 352.759 372.061L351.18 370.926C351.053 370.834 351.072 370.639 351.216 370.574L352.988 369.774Z" fill="#161616"/>
</g>
<defs>
<clipPath id="clip0_133_2468">
<rect width="772.031" height="549" rx="10.7227" fill="white"/>
</clipPath>
</defs>
</svg>
